<?xml version="1.0" standalone="no"?>
<!DOCTYPE svg PUBLIC "-//W3C//DTD SVG 20010904//EN" "http://www.w3.org/TR/2001/REC-SVG-20010904/DTD/svg10.dtd">
<svg version="1.0" xmlns="http://www.w3.org/2000/svg" width="60" height="60" viewBox="0 0 60.000000 60.000000" preserveAspectRatio="xMidYMid meet">
	<g transform="translate(0.000000,60.000000) scale(0.100000,-0.100000)" fill="#000000" stroke="none">
		<path d="M240 531 c-71 -23 -122 -66 -156 -131 -26 -50 -25 -152 3 -206 27
-50 48 -70 58 -53 14 22 110 59 155 59 45 0 141 -37 155 -59 17 -29 71 59 81
132 12 87 -42 190 -124 235 -45 25 -131 37 -172 23z m115 -136 c54 -53 18
-155 -55 -155 -73 0 -109 102 -55 155 15 16 36 25 55 25 19 0 40 -9 55 -25z" />
		<path d="M276 364 c-9 -8 -16 -24 -16 -34 0 -19 25 -50 40 -50 15 0 40 31 40
50 0 19 -25 50 -40 50 -5 0 -16 -7 -24 -16z" />
		<path d="M260 154 c-52 -21 -80 -38 -80 -49 0 -20 60 -40 120 -40 60 0 120 20
120 40 0 28 -121 64 -160 49z" />
	</g>
</svg>
