<svg width="27" height="26" viewBox="0 0 27 26" fill="none" xmlns="http://www.w3.org/2000/svg">
<path d="M4.57143 4.55556H26L23.3214 16.1111H7.25M23.3214 19.6667H8.14286L3.67857 1H1" stroke="#888888" stroke-width="2" stroke-linecap="round" stroke-linejoin="round"/>
<path d="M21.5357 25C22.5219 25 23.3214 24.2041 23.3214 23.2222C23.3214 22.2404 22.5219 21.4445 21.5357 21.4445C20.5495 21.4445 19.75 22.2404 19.75 23.2222C19.75 24.2041 20.5495 25 21.5357 25Z" stroke="#888888" stroke-width="2" stroke-linecap="round" stroke-linejoin="round"/>
<path d="M9.92854 25C10.9148 25 11.7143 24.2041 11.7143 23.2222C11.7143 22.2404 10.9148 21.4445 9.92854 21.4445C8.94231 21.4445 8.14282 22.2404 8.14282 23.2222C8.14282 24.2041 8.94231 25 9.92854 25Z" stroke="#888888" stroke-width="2" stroke-linecap="round" stroke-linejoin="round"/>
</svg>
