<svg width="24" height="24" viewBox="0 0 24 24" fill="none" xmlns="http://www.w3.org/2000/svg">
<path d="M22.3529 6.59503H17.6824L17.8235 6.45828C18.1703 6.11683 18.4484 5.70508 18.6413 5.24758C18.8342 4.79008 18.938 4.29621 18.9463 3.79543C18.9547 3.29465 18.8675 2.79722 18.69 2.33282C18.5125 1.86841 18.2483 1.44655 17.9131 1.09239C17.578 0.738225 17.1788 0.459027 16.7393 0.271446C16.2998 0.083865 15.8291 -0.00825524 15.3552 0.000580436C14.8813 0.00941612 14.4139 0.119027 13.981 0.322874C13.5481 0.52672 13.1584 0.820627 12.8353 1.18706C12.4662 1.60686 12.182 2.1018 12 2.64162C11.818 2.1018 11.5338 1.60686 11.1647 1.18706C10.4956 0.528257 9.61072 0.169599 8.69636 0.186647C7.78201 0.203695 6.90961 0.595118 6.26296 1.27845C5.61631 1.96179 5.2459 2.88368 5.22976 3.84991C5.21363 4.81614 5.55304 5.75126 6.17647 6.45828L6.31765 6.59503H1.64706C1.21023 6.59503 0.791296 6.77841 0.482412 7.10481C0.173529 7.43122 0 7.87392 0 8.33553V12.3138C0 12.7754 0.173529 13.2181 0.482412 13.5445C0.791296 13.8709 1.21023 14.0543 1.64706 14.0543H1.88235V22.2595C1.88235 22.7211 2.05588 23.1638 2.36477 23.4902C2.67365 23.8166 3.09258 24 3.52941 24H20.4706C20.9074 24 21.3264 23.8166 21.6352 23.4902C21.9441 23.1638 22.1176 22.7211 22.1176 22.2595V14.0543H22.3529C22.7898 14.0543 23.2087 13.8709 23.5176 13.5445C23.8265 13.2181 24 12.7754 24 12.3138V8.33553C24 7.87392 23.8265 7.43122 23.5176 7.10481C23.2087 6.77841 22.7898 6.59503 22.3529 6.59503ZM13.8353 2.24379C14.0263 2.0133 14.26 1.82671 14.522 1.69556C14.784 1.56441 15.0687 1.49151 15.3584 1.48136C15.6482 1.47121 15.9368 1.52404 16.2064 1.63657C16.4761 1.74911 16.721 1.91894 16.9259 2.13556C17.1309 2.35219 17.2917 2.61098 17.3981 2.89591C17.5046 3.18084 17.5546 3.48585 17.545 3.79203C17.5354 4.09821 17.4664 4.39905 17.3423 4.6759C17.2182 4.95276 17.0416 5.19974 16.8235 5.40155C16.1294 6.13504 14.1765 6.48314 12.7294 6.57017C12.8118 5.04102 13.1412 2.97729 13.8353 2.24379ZM7.17647 2.24379C7.57334 1.82624 8.11056 1.59182 8.67059 1.59182C9.23061 1.59182 9.76784 1.82624 10.1647 2.24379C10.8588 2.97729 11.1882 5.04102 11.2706 6.57017C9.82353 6.48314 7.87059 6.13504 7.17647 5.40155C6.78134 4.98217 6.5595 4.41447 6.5595 3.82267C6.5595 3.23087 6.78134 2.66317 7.17647 2.24379ZM1.41176 12.3138V8.33553C1.41176 8.26958 1.43655 8.20634 1.48068 8.15971C1.52481 8.11308 1.58465 8.08689 1.64706 8.08689H11.2941V12.5624H1.64706C1.58465 12.5624 1.52481 12.5363 1.48068 12.4896C1.43655 12.443 1.41176 12.3798 1.41176 12.3138ZM3.29412 22.2595V14.0543H11.2941V22.5081H3.52941C3.46701 22.5081 3.40716 22.4819 3.36303 22.4353C3.31891 22.3887 3.29412 22.3254 3.29412 22.2595ZM20.7059 22.2595C20.7059 22.3254 20.6811 22.3887 20.637 22.4353C20.5928 22.4819 20.533 22.5081 20.4706 22.5081H12.7059V14.0543H20.7059V22.2595ZM22.5882 12.3138C22.5882 12.3798 22.5634 12.443 22.5193 12.4896C22.4752 12.5363 22.4153 12.5624 22.3529 12.5624H12.7059V8.08689H22.3529C22.4153 8.08689 22.4752 8.11308 22.5193 8.15971C22.5634 8.20634 22.5882 8.26958 22.5882 8.33553V12.3138Z" fill="#05F749"/>
</svg>
