<?xml version="1.0" standalone="no"?>
<!DOCTYPE svg PUBLIC "-//W3C//DTD SVG 20010904//EN" "http://www.w3.org/TR/2001/REC-SVG-20010904/DTD/svg10.dtd">
<svg version="1.0" xmlns="http://www.w3.org/2000/svg" width="60.000000px" height="60.000000px" viewBox="0 0 60.000000 60.000000" preserveAspectRatio="xMidYMid meet">
	<g transform="translate(0.000000,60.000000) scale(0.100000,-0.100000)" fill="#000000" stroke="none">
		<path d="M180 466 c-63 -52 -116 -99 -118 -106 -2 -6 5 -14 17 -17 20 -5 21
-12 21 -118 0 -90 3 -117 16 -129 23 -24 345 -24 368 0 13 12 16 39 16 129 0
104 1 113 20 118 29 8 25 22 -19 57 -36 28 -40 36 -43 83 -3 48 -5 52 -28 52
-18 0 -26 -6 -28 -22 -2 -13 -6 -23 -9 -23 -2 0 -24 16 -47 35 -24 19 -45 35
-47 35 -2 0 -56 -43 -119 -94z m180 -266 l0 -80 -60 0 -60 0 0 80 0 80 60 0
60 0 0 -80z" />
	</g>
</svg>
