<svg width="24" height="24" viewBox="0 0 19 13" fill="none" xmlns="http://www.w3.org/2000/svg">
	<path d="M8.21406 12.7066H3.21406C2.93073 12.7066 2.69306 12.6335 2.50106 12.4872C2.30973 12.3414 2.21406 12.1605 2.21406 11.9446V6.61051H0.514062C0.280729 6.61051 0.122396 6.52796 0.0390625 6.36285C-0.0442708 6.19775 0.00572905 6.05805 0.189062 5.94374L8.53906 0.209562C8.7224 0.0698591 8.9474 7.62939e-06 9.21406 7.62939e-06C9.48073 7.62939e-06 9.70573 0.0698591 9.88906 0.209562L13.2141 2.49561V1.27639C13.2141 1.06048 13.3101 0.879376 13.5021 0.733068C13.6934 0.587269 13.9307 0.514369 14.2141 0.514369H15.2141C15.4974 0.514369 15.7347 0.587269 15.9261 0.733068C16.1181 0.879376 16.2141 1.06048 16.2141 1.27639V4.55306L18.2391 5.94374C18.4224 6.05805 18.4724 6.19775 18.3891 6.36285C18.3057 6.52796 18.1474 6.61051 17.9141 6.61051H16.2141V11.9446C16.2141 12.1605 16.1181 12.3414 15.9261 12.4872C15.7347 12.6335 15.4974 12.7066 15.2141 12.7066H10.2141V8.13454H8.21406V12.7066ZM4.21406 11.1826H6.21406V7.37253C6.21406 7.15662 6.31006 6.97551 6.50206 6.82921C6.6934 6.68341 6.93073 6.61051 7.21406 6.61051H11.2141C11.4974 6.61051 11.7351 6.68341 11.9271 6.82921C12.1184 6.97551 12.2141 7.15662 12.2141 7.37253V11.1826H14.2141V5.23888L9.21406 1.8098L4.21406 5.23888V11.1826ZM7.21406 5.10552H11.2141C11.2141 4.69911 11.0141 4.3656 10.6141 4.10499C10.2141 3.84489 9.7474 3.71484 9.21406 3.71484C8.68073 3.71484 8.21406 3.84489 7.81406 4.10499C7.41406 4.3656 7.21406 4.69911 7.21406 5.10552ZM7.21406 6.61051H11.2141H7.21406Z" fill="#F706FC" />
</svg>
