<svg width="19" height="17" viewBox="0 0 19 17" fill="none" xmlns="http://www.w3.org/2000/svg">
<path d="M8.21406 16.675H3.21406C2.93073 16.675 2.69306 16.579 2.50106 16.387C2.30973 16.1957 2.21406 15.9583 2.21406 15.675V8.675H0.514062C0.280729 8.675 0.122396 8.56667 0.0390625 8.35C-0.0442708 8.13333 0.00572905 7.95 0.189062 7.8L8.53906 0.275C8.7224 0.0916665 8.9474 0 9.21406 0C9.48073 0 9.70573 0.0916665 9.88906 0.275L13.2141 3.275V1.675C13.2141 1.39167 13.3101 1.154 13.5021 0.962C13.6934 0.770667 13.9307 0.675 14.2141 0.675H15.2141C15.4974 0.675 15.7347 0.770667 15.9261 0.962C16.1181 1.154 16.2141 1.39167 16.2141 1.675V5.975L18.2391 7.8C18.4224 7.95 18.4724 8.13333 18.3891 8.35C18.3057 8.56667 18.1474 8.675 17.9141 8.675H16.2141V15.675C16.2141 15.9583 16.1181 16.1957 15.9261 16.387C15.7347 16.579 15.4974 16.675 15.2141 16.675H10.2141V10.675H8.21406V16.675ZM4.21406 14.675H6.21406V9.675C6.21406 9.39167 6.31006 9.154 6.50206 8.962C6.6934 8.77067 6.93073 8.675 7.21406 8.675H11.2141C11.4974 8.675 11.7351 8.77067 11.9271 8.962C12.1184 9.154 12.2141 9.39167 12.2141 9.675V14.675H14.2141V6.875L9.21406 2.375L4.21406 6.875V14.675ZM7.21406 6.7H11.2141C11.2141 6.16667 11.0141 5.729 10.6141 5.387C10.2141 5.04567 9.7474 4.875 9.21406 4.875C8.68073 4.875 8.21406 5.04567 7.81406 5.387C7.41406 5.729 7.21406 6.16667 7.21406 6.7ZM7.21406 8.675H11.2141H7.21406Z" fill="#F706FC"/>
</svg>
