<?xml version="1.0" standalone="no"?>
<!DOCTYPE svg PUBLIC "-//W3C//DTD SVG 20010904//EN" "http://www.w3.org/TR/2001/REC-SVG-20010904/DTD/svg10.dtd">
<svg version="1.0" xmlns="http://www.w3.org/2000/svg" width="60" height="60" viewBox="0 0 60.000000 60.000000" preserveAspectRatio="xMidYMid meet">
	<g transform="translate(0.000000,60.000000) scale(0.100000,-0.100000)" fill="#000000" stroke="none">
		<path d="M76 524 c-24 -23 -24 -425 0 -448 13 -13 42 -16 164 -16 185 0 180
-4 180 126 l0 94 57 0 57 0 -29 -30 c-23 -24 -26 -33 -17 -42 10 -10 24 -1 64
40 l53 52 -50 50 c-38 39 -52 47 -62 38 -11 -9 -9 -16 13 -40 l28 -28 -57 0
-57 0 0 94 c0 130 5 126 -180 126 -122 0 -151 -3 -164 -16z m344 -224 c0 -18
-7 -20 -84 -20 -47 0 -88 5 -91 10 -14 22 10 30 91 30 77 0 84 -2 84 -20z" />
	</g>
</svg>
